<svg fill="none" height="24" viewBox="0 0 24 24" width="24" xmlns="http://www.w3.org/2000/svg"><g fill="#000"><path clip-rule="evenodd" d="m7.58579 11.9142c-.37508.375-.58579.8837-.58579 1.4142v2.6716c0 .5522.44772 1 1 1h2.6716c.5304 0 1.0391-.2108 1.4142-.5858l9.5-9.50004c.781-.78105.781-2.04738 0-2.82843l-1.6716-1.67157c-.781-.78105-2.0474-.78105-2.8284 0zm2.87871 2.5858h-.9645v-.9645l9-9.00002.9645.96447z" fill-rule="evenodd"/><path d="m19.75 14c-.6904 0-1.25.5596-1.25 1.25v4.25h-14v-14.00005h4.25c.69036 0 1.25-.55965 1.25-1.25001 0-.69035-.55964-1.25-1.25-1.25h-4.75c-1.10457 0-2 .89544-2 2.00001v15.00005c0 1.1045.89543 2 2 2h15c1.1046 0 2-.8955 2-2v-4.75c0-.6904-.5596-1.25-1.25-1.25z"/></g></svg>