<svg fill="none" height="24" viewBox="0 0 24 24" width="24" xmlns="http://www.w3.org/2000/svg"><g fill="#000"><path d="m12 14c-.6904 0-1.25-.5596-1.25-1.25v-3c0-.69035.5596-1.25 1.25-1.25s1.25.55965 1.25 1.25v3c0 .6904-.5596 1.25-1.25 1.25z"/><path clip-rule="evenodd" d="m12.0001 0c-.9864.00002003-1.9728.112291-2.93983.336821-.67172.155966-1.02278.870239-.80312 1.523909.21964.6536.92689.99753 1.60207.85767l.00686-.00142c.29042-.05996.58522-.10792.88392-.14335v1.51248c-4.37892.60844-7.75 4.36749-7.75 8.91389 0 4.9706 4.02944 9 9 9 4.9706 0 9-4.0294 9-9 0-2.0345-.6751-3.91136-1.8135-5.41875l.7035-.70346c.5243-.52432.5243-1.3744 0-1.89872-.452-.45199-1.1848-.45199-1.6368 0l-.8344.83441c-1.1932-.90106-2.6178-1.51186-4.1688-1.72737v-1.51248c.3036.03602.6033.08499.8984.14635.6751.14037 1.3827-.20309 1.6028-.85661.2202-.65356-.1304-1.368118-.8021-1.52455-.958-.22313-1.9352-.33605512-2.9126-.33876985-.0121-.00003332-.0242-.00005004-.0364-.00005015zm-.0001 19.5c3.5899 0 6.5-2.9101 6.5-6.5 0-3.58985-2.9101-6.5-6.5-6.5-3.58985 0-6.5 2.91015-6.5 6.5 0 3.5899 2.91015 6.5 6.5 6.5z" fill-rule="evenodd"/></g></svg>