<svg fill="none" height="24" viewBox="0 0 24 24" width="24" xmlns="http://www.w3.org/2000/svg"><path d="m17.3049 4.92886c.4882-.48815 1.2796-.48816 1.7678 0 .4881.48815.4881 1.27961 0 1.76776l-5.3033 5.30328 5.3033 5.3033c.4881.4882.4881 1.2797 0 1.7678-.4882.4882-1.2796.4882-1.7678 0l-5.3033-5.3033-5.30326 5.3033c-.48816.4881-1.27962.4881-1.76777 0-.48816-.4882-.48816-1.2797 0-1.7678l5.30323-5.3033-5.30323-5.30323c-.48815-.48815-.48815-1.27961 0-1.76776.48816-.48816 1.27961-.48815 1.76777 0l5.30326 5.30329z" fill="#000"/></svg>